<svg width="33" height="33" viewBox="0 0 33 33" fill="none" xmlns="http://www.w3.org/2000/svg">
<mask id="mask0_95_14971" style="mask-type:alpha" maskUnits="userSpaceOnUse" x="0" y="0" width="33" height="33">
<rect x="0.453125" y="0.842285" width="32" height="32" fill="#D9D9D9"/>
</mask>
<g mask="url(#mask0_95_14971)">
<path d="M16.4525 15.5648L20.708 19.8204L22.2969 18.2648L16.4525 12.4204L10.608 18.2648L12.1969 19.8204L16.4525 15.5648ZM16.4525 30.1759C14.608 30.1759 12.8747 29.8259 11.2525 29.1259C9.63025 28.4259 8.21914 27.4759 7.01914 26.2759C5.81914 25.0759 4.86914 23.6648 4.16914 22.0426C3.46914 20.4204 3.11914 18.6871 3.11914 16.8426C3.11914 14.9982 3.46914 13.2685 4.16914 11.6537C4.86914 10.0389 5.81914 8.6278 7.01914 7.42038C8.21914 6.21298 9.63025 5.25928 11.2525 4.55928C12.8747 3.85928 14.608 3.50928 16.4525 3.50928C18.2969 3.50928 20.0266 3.85928 21.6414 4.55928C23.2562 5.25928 24.6673 6.21298 25.8747 7.42038C27.0821 8.6278 28.0358 10.0389 28.7358 11.6537C29.4358 13.2685 29.7858 14.9982 29.7858 16.8426C29.7858 18.6871 29.4358 20.4204 28.7358 22.0426C28.0358 23.6648 27.0821 25.0759 25.8747 26.2759C24.6673 27.4759 23.2562 28.4259 21.6414 29.1259C20.0266 29.8259 18.2969 30.1759 16.4525 30.1759Z" fill="white"/>
</g>
</svg>
