<svg width="32" height="33" viewBox="0 0 32 33" fill="none" xmlns="http://www.w3.org/2000/svg">
<mask id="mask0_95_14980" style="mask-type:alpha" maskUnits="userSpaceOnUse" x="0" y="0" width="32" height="33">
<rect y="0.842285" width="32" height="32" fill="#D9D9D9"/>
</mask>
<g mask="url(#mask0_95_14980)">
<path d="M15.9993 21.2648L21.8438 15.4204L20.2549 13.8648L15.9993 18.1204L11.7438 13.8648L10.1549 15.4204L15.9993 21.2648ZM15.9993 30.1759C14.1697 30.1759 12.4438 29.8259 10.8216 29.1259C9.19936 28.4259 7.78454 27.4722 6.57712 26.2648C5.36972 25.0574 4.41602 23.6426 3.71602 22.0204C3.01602 20.3982 2.66602 18.6722 2.66602 16.8426C2.66602 14.9982 3.01602 13.2648 3.71602 11.6426C4.41602 10.0204 5.36972 8.60928 6.57712 7.40928C7.78454 6.20928 9.19936 5.25928 10.8216 4.55928C12.4438 3.85928 14.1697 3.50928 15.9993 3.50928C17.8438 3.50928 19.5771 3.85928 21.1994 4.55928C22.8216 5.25928 24.2327 6.20928 25.4327 7.40928C26.6327 8.60928 27.5827 10.0204 28.2827 11.6426C28.9827 13.2648 29.3327 14.9982 29.3327 16.8426C29.3327 18.6722 28.9827 20.3982 28.2827 22.0204C27.5827 23.6426 26.6327 25.0574 25.4327 26.2648C24.2327 27.4722 22.8216 28.4259 21.1994 29.1259C19.5771 29.8259 17.8438 30.1759 15.9993 30.1759Z" fill="white"/>
</g>
</svg>
